<?xml version="1.0" standalone="no"?><!DOCTYPE svg PUBLIC "-//W3C//DTD SVG 1.1//EN" "http://www.w3.org/Graphics/SVG/1.1/DTD/svg11.dtd"><svg t="1599121876855" class="icon" viewBox="0 0 1024 1024" version="1.1" xmlns="http://www.w3.org/2000/svg" p-id="3436" xmlns:xlink="http://www.w3.org/1999/xlink" width="200" height="200"><defs><style type="text/css"></style></defs><path d="M511.999699 0.000698a442.181517 442.181517 0 0 0-116.363558 869.003044A289.745257 289.745257 0 0 1 511.999699 1024a289.745257 289.745257 0 0 1 116.363557-154.996258A442.181517 442.181517 0 0 0 511.999699 0.000698z m116.363557 116.363557a162.90898 162.90898 0 0 1 162.908979 162.90898H465.454276a162.90898 162.90898 0 0 1 162.90898-162.90898z m-155.69444 209.454403a160.581709 160.581709 0 0 1-5.352723-23.272712h322.094325a153.832622 153.832622 0 0 1-5.352723 23.272712z m302.545249 23.272711a178.036242 178.036242 0 0 1-13.498173 23.272712H495.010619a178.036242 178.036242 0 0 1-13.498172-23.272712z m23.272711 389.585189a11.170901 11.170901 0 0 1-16.290898 0 174.079881 174.079881 0 0 0-116.363557-37.934519 102.167203 102.167203 0 0 0-66.0945 18.152714 137.07627 137.07627 0 0 1-86.807214 23.272712 145.919901 145.919901 0 0 1-88.901758-23.272712 103.563566 103.563566 0 0 0-64.232683-17.919987 204.101679 204.101679 0 0 0-120.785372 38.632701 11.403629 11.403629 0 0 1-7.447268 2.792725 11.170901 11.170901 0 0 1-8.84363-4.189088 11.869083 11.869083 0 0 1 2.559998-16.756352 225.047119 225.047119 0 0 1 135.679907-43.985425 126.138096 126.138096 0 0 1 76.101767 21.178168 122.879916 122.879916 0 0 0 77.032675 20.247258 116.363557 116.363557 0 0 0 74.472676-19.549077 124.276279 124.276279 0 0 1 78.429037-21.876349A191.068961 191.068961 0 0 1 799.417684 721.454752a11.170901 11.170901 0 0 1 0 17.221806z m46.545423-66.327227a11.403629 11.403629 0 0 1-16.290898 0A202.938043 202.938043 0 0 0 692.828666 628.363906a120.319918 120.319918 0 0 0-78.19631 21.643622 158.719892 158.719892 0 0 1-100.072659 24.901801 167.796249 167.796249 0 0 1-102.865385-27.229072 121.949008 121.949008 0 0 0-75.869039-19.316351 238.079838 238.079838 0 0 0-142.196267 46.545423A11.403629 11.403629 0 0 1 186.181739 674.909329a11.170901 11.170901 0 0 1-8.84363-4.189088 11.869083 11.869083 0 0 1 1.396362-16.523625A259.025278 259.025278 0 0 1 335.825273 605.091195a143.127175 143.127175 0 0 1 87.738122 23.272711 147.083536 147.083536 0 0 0 90.996302 23.272712 135.912635 135.912635 0 0 0 87.738122-23.272712 143.592629 143.592629 0 0 1 90.530847-23.272711 221.78894 221.78894 0 0 1 153.134441 51.665419 11.636356 11.636356 0 0 1 0 15.592717z m6.981813-67.956318a218.996214 218.996214 0 0 0-147.316263-48.407239 130.559911 130.559911 0 0 0-84.014488 23.272711 169.192612 169.192612 0 0 1-106.821746 28.625435 180.363513 180.363513 0 0 1-109.847197-28.858162 131.025365 131.025365 0 0 0-81.687217-23.272711A255.999825 255.999825 0 0 0 170.356295 605.091195a12.567264 12.567264 0 0 1-7.447268 2.559998 11.170901 11.170901 0 0 1-8.84363-4.189088 11.403629 11.403629 0 0 1 1.396363-16.290898 276.014357 276.014357 0 0 1 167.796249-54.458145 155.461712 155.461712 0 0 1 93.090846 26.065437 155.461712 155.461712 0 0 0 97.745388 25.599983A226.210755 226.210755 0 0 0 558.545121 581.818483l20.712713-145.9199A162.90898 162.90898 0 0 1 514.32697 395.636792h227.839844a165.003524 165.003524 0 0 1-64.232683 38.865428L698.18139 532.945789h7.912722c107.2872 0 161.512617 52.829055 162.908979 55.156326a11.170901 11.170901 0 0 1 0 16.290898 11.403629 11.403629 0 0 1-16.05817 0.698182z" p-id="3437"></path></svg>