<?xml version="1.0" standalone="no"?><!DOCTYPE svg PUBLIC "-//W3C//DTD SVG 1.1//EN" "http://www.w3.org/Graphics/SVG/1.1/DTD/svg11.dtd"><svg t="1599121913098" class="icon" viewBox="0 0 1024 1024" version="1.1" xmlns="http://www.w3.org/2000/svg" p-id="4097" xmlns:xlink="http://www.w3.org/1999/xlink" width="200" height="200"><defs><style type="text/css"></style></defs><path d="M512 143.36a348.16 348.16 0 1 1 0 696.32 348.16 348.16 0 0 1 0-696.32z m20.48 82.69824V266.24h-40.96v-40.18176a265.09312 265.09312 0 0 0-152.73984 63.2832l5.85728 5.85728-28.95872 28.95872-5.85728-5.85728a265.09312 265.09312 0 0 0-63.2832 152.7808L286.72 471.04v40.96h-40.18176a265.05216 265.05216 0 0 0 61.6448 150.81472L315.67872 655.36l28.95872 28.95872-7.70048 7.7824a265.13408 265.13408 0 0 0 154.624 64.88064L491.52 716.8h40.96v40.18176a265.09312 265.09312 0 0 0 152.73984-63.2832L675.84 684.31872l28.95872-28.95872 9.4208 9.37984A265.09312 265.09312 0 0 0 777.4208 512H737.28v-40.96h40.18176a265.13408 265.13408 0 0 0-64.88064-154.58304l-7.7824 7.70048L675.84 295.19872l7.49568-7.45472A265.05216 265.05216 0 0 0 532.48 226.05824zM512 307.2l81.92 184.32h-163.84l81.92-184.32z" fill="#444444" p-id="4098"></path></svg>