<?xml version="1.0" standalone="no"?><!DOCTYPE svg PUBLIC "-//W3C//DTD SVG 1.1//EN" "http://www.w3.org/Graphics/SVG/1.1/DTD/svg11.dtd"><svg t="1599121908521" class="icon" viewBox="0 0 1024 1024" version="1.1" xmlns="http://www.w3.org/2000/svg" p-id="3965" xmlns:xlink="http://www.w3.org/1999/xlink" width="200" height="200"><defs><style type="text/css"></style></defs><path d="M857.2 217.8c0-19.1-15.5-34.6-34.6-34.6H414.5V114c0-9.6-7.7-17.3-17.3-17.3H293.5c-9.5 0-17.3 7.7-17.3 17.3v69.2h-76.1c-19.1 0-34.6 15.5-34.6 34.6L96.3 459.9c0 19.1 15.5 34.6 34.6 34.6h760.8c19.1 0 34.6-15.5 34.6-34.6l-69.1-242.1zM179.3 893.6c0 18.3 14.9 33.2 33.2 33.2h232.4V706.9c0-9.2 7.4-16.6 16.6-16.6h99.6c9.2 0 16.6 7.4 16.6 16.6v219.9h232.4c18.3 0 33.2-14.9 33.2-33.2V532.5h-664v361.1z" p-id="3966"></path></svg>